<svg xmlns="http://www.w3.org/2000/svg" width="27" height="30" viewBox="0 0 27 30">
    <g fill="#3d474b" fill-rule="nonzero">
        <path d="M9.5 14.728A.728.728 0 0 0 8.771 14H6.228a.728.728 0 0 0-.728.728v2.543c0 .403.326.729.728.729h2.543a.729.729 0 0 0 .729-.729v-2.543zM15.5 14.728a.728.728 0 0 0-.728-.728h-2.544a.728.728 0 0 0-.728.728v2.543c0 .403.326.729.728.729h2.544a.728.728 0 0 0 .728-.729v-2.543zM21.5 14.728a.728.728 0 0 0-.728-.728h-2.543a.728.728 0 0 0-.729.728v2.543c0 .403.326.729.729.729h2.543a.729.729 0 0 0 .728-.729v-2.543zM9.5 20.729A.728.728 0 0 0 8.771 20H6.228a.728.728 0 0 0-.728.729v2.542c0 .403.326.729.728.729h2.543a.729.729 0 0 0 .729-.729V20.73zM15.5 20.729a.728.728 0 0 0-.728-.729h-2.544a.728.728 0 0 0-.728.729v2.542c0 .403.326.729.728.729h2.544a.728.728 0 0 0 .728-.729V20.73zM21.5 20.729a.728.728 0 0 0-.728-.729h-2.543a.728.728 0 0 0-.729.729v2.542c0 .403.326.729.729.729h2.543a.728.728 0 0 0 .728-.729V20.73z"/>
        <path d="M23.981 2.998h-1.498V0h-2.998v2.998H7.495V0H4.495v2.998H2.998A2.984 2.984 0 0 0 .015 5.995L0 26.98a2.997 2.997 0 0 0 2.998 2.998H23.98a2.997 2.997 0 0 0 2.998-2.998V5.995a2.997 2.997 0 0 0-2.998-2.997zm0 23.98H2.998V10.493H23.98v16.487z"/>
    </g>
</svg>
