<svg xmlns="http://www.w3.org/2000/svg" width="6" height="10" viewBox="0 0 6 10">
    <path fill="#ED4240" fill-rule="evenodd" d="M.856 3.984c.04.371.062.713.062 1.016 0 .303-.021.645-.062 1.016a17.77 17.77 0 0 1-.237 1.497 23.218 23.218 0 0 1-.3 1.313L0 10l1.126-.46a11.153 11.153 0 0 0 2.566-1.584c.947-.783 1.69-1.685 2.144-2.713L5.944 5l-.108-.243c-.455-1.028-1.197-1.93-2.143-2.713A11.174 11.174 0 0 0 1.126.46L0 0l.32 1.174c.017.066.05.192.092.367.07.292.141.612.207.946.103.519.185 1.025.237 1.497"/>
</svg>
