<svg xmlns="http://www.w3.org/2000/svg" width="6" height="10" viewBox="0 0 6 10">
    <path fill="#3D474B" fill-rule="evenodd" d="M.864 3.984c.041.371.063.713.063 1.016 0 .303-.022.645-.063 1.016-.053.472-.135.978-.239 1.497a23.03 23.03 0 0 1-.303 1.313L0 10l1.137-.46a11.264 11.264 0 0 0 2.59-1.584c.955-.783 1.705-1.685 2.164-2.713L6 5l-.109-.243c-.46-1.028-1.209-1.93-2.164-2.713A11.286 11.286 0 0 0 1.137.46L0 0l.322 1.174a23.009 23.009 0 0 1 .303 1.313 17.6 17.6 0 0 1 .239 1.497" opacity=".4"/>
</svg>
