<svg xmlns="http://www.w3.org/2000/svg" width="16" height="30" viewBox="0 0 16 30">
    <path fill="#FFF" fill-rule="nonzero" d="M15.775 18.264a5.972 5.972 0 0 0-.54-1.28c-.211-.363-.514-.717-.908-1.063a10.81 10.81 0 0 0-1.064-.837c-.314-.212-.746-.45-1.294-.712a23.478 23.478 0 0 0-1.303-.586 57.29 57.29 0 0 0-1.39-.527c-.537-.201-.937-.355-1.2-.46a26.824 26.824 0 0 1-1.037-.453c-.429-.195-.749-.368-.96-.518a7.508 7.508 0 0 1-.678-.553 1.886 1.886 0 0 1-.506-.694 2.169 2.169 0 0 1-.145-.804c0-.759.342-1.379 1.028-1.858.686-.48 1.572-.72 2.658-.72.48 0 .97.064 1.466.192.497.129.923.274 1.278.436.354.162.689.34 1.003.535.315.196.537.344.67.444.13.1.214.167.248.2.149.113.303.151.463.118.171-.011.303-.1.394-.268l1.39-2.444c.137-.223.108-.435-.086-.636a5.813 5.813 0 0 0-.258-.235 8.894 8.894 0 0 0-.669-.485 8.324 8.324 0 0 0-1.088-.628c-.383-.184-.88-.371-1.493-.56a9.714 9.714 0 0 0-1.894-.386V.536A.516.516 0 0 0 9.706.15.542.542 0 0 0 9.31 0H6.996a.533.533 0 0 0-.386.159.509.509 0 0 0-.163.377v3.013c-1.795.335-3.252 1.083-4.373 2.243C.954 6.953.394 8.303.394 9.844c0 .457.049.893.146 1.305.097.413.217.785.36 1.114.143.33.346.653.609.97.263.319.511.592.746.821.234.229.54.466.917.711.377.246.7.444.969.595.269.15.626.324 1.072.519.445.195.797.343 1.054.443.258.1.61.24 1.055.419.617.234 1.075.415 1.372.544.297.128.674.307 1.132.536.457.228.791.437 1.003.627.212.19.403.424.575.703.171.28.257.575.257.888 0 .881-.351 1.562-1.055 2.042-.703.48-1.517.72-2.443.72a6.13 6.13 0 0 1-1.27-.134c-1.485-.29-2.874-.988-4.166-2.093l-.034-.033a.43.43 0 0 0-.412-.15c-.183.022-.314.089-.394.2L.12 22.851c-.172.224-.16.452.034.687.057.067.157.167.3.301.143.134.409.343.797.628.39.285.812.553 1.27.804.457.251 1.037.5 1.74.745.703.245 1.432.418 2.186.518v2.93c0 .145.055.27.163.377a.533.533 0 0 0 .386.159h2.315c.16 0 .292-.05.395-.15a.515.515 0 0 0 .154-.386v-2.93c1.818-.29 3.295-1.051 4.433-2.285C15.43 23.016 16 21.546 16 19.838c0-.558-.075-1.082-.225-1.574z"/>
</svg>
