<svg xmlns="http://www.w3.org/2000/svg" width="80" height="80" viewBox="0 0 80 80">
    <path fill="#52A6C4" fill-rule="evenodd" d="M7.565 41.274a1.27 1.27 0 0 1-1.26-1.275c0-.702.565-1.273 1.26-1.273h4.53c.695 0 1.26.571 1.26 1.273 0 .704-.565 1.275-1.26 1.275h-4.53zm66.13-1.275c0 .704-.552 1.275-1.23 1.275h-4.14c-.678 0-1.23-.571-1.23-1.275 0-.702.552-1.273 1.23-1.273h4.14c.678 0 1.23.571 1.23 1.273zM41.274 67.89v4.563c0 .686-.571 1.244-1.275 1.244-.702 0-1.273-.558-1.273-1.244v-4.564c0-.686.571-1.244 1.273-1.244.704 0 1.275.558 1.275 1.244zm-2.548-56.725v-3.57c0-.71.571-1.29 1.273-1.29.704 0 1.275.58 1.275 1.29v3.57c0 .712-.571 1.29-1.275 1.29a1.283 1.283 0 0 1-1.273-1.29zm1.5 31.588a2.53 2.53 0 0 1-2.528-2.527 2.53 2.53 0 0 1 2.527-2.527 2.53 2.53 0 0 1 2.527 2.527 2.53 2.53 0 0 1-2.527 2.527zm1.048-7.518V21.546a1.28 1.28 0 0 0-1.275-1.282 1.28 1.28 0 0 0-1.273 1.282v13.828a5.086 5.086 0 0 0-3.351 3.352h-6.181c-.703 0-1.275.571-1.275 1.273 0 .704.572 1.275 1.275 1.275h6.04a5.11 5.11 0 0 0 4.991 4.052 5.107 5.107 0 0 0 5.101-5.1 5.11 5.11 0 0 0-4.052-4.992zm-33.87-1.752a1.248 1.248 0 0 1-.17-.946c1.409-6.398 4.67-12.213 9.427-16.815a33.831 33.831 0 0 1 17.236-8.942 1.276 1.276 0 0 1 1.5 1.002 1.267 1.267 0 0 1-1.016 1.48C22.078 11.604 12.405 20.95 9.737 33.072a1.284 1.284 0 0 1-1.525.967 1.272 1.272 0 0 1-.808-.558zm65.64 12.585c.182.283.244.62.172.947-1.41 6.398-4.669 12.213-9.427 16.815a33.828 33.828 0 0 1-17.235 8.942 1.278 1.278 0 0 1-1.5-1.003 1.267 1.267 0 0 1 1.015-1.48C58.37 67.946 68.045 58.6 70.712 46.478a1.284 1.284 0 0 1 2.332-.41zM34.04 71.803c-.122.574-.624.992-1.193.992-.087 0-.174-.01-.262-.03l-.105-.023c-.66-.15-1.077-.827-.929-1.508.124-.572.626-.987 1.193-.987.088 0 .177.01.264.03.757.17 1.177.844 1.032 1.526zm-5.474-1.145a1.27 1.27 0 0 1-1.667.686 33.938 33.938 0 0 1-13.103-9.798A33.875 33.875 0 0 1 6.778 46.55a1.281 1.281 0 0 1 1.254-1.52c.608 0 1.132.436 1.247 1.037a31.171 31.171 0 0 0 18.604 22.92c.648.27.955 1.021.683 1.671zM45.51 8.208a1.265 1.265 0 0 1 1.494-.975c.716.162 1.145.842.993 1.527a1.268 1.268 0 0 1-1.226.993c-.092 0-.185-.01-.276-.031a1.275 1.275 0 0 1-.985-1.515zm6.363 2.521a1.245 1.245 0 0 1 .017-.962 1.267 1.267 0 0 1 1.668-.656c10.214 4.402 17.566 13.508 19.664 24.36a1.26 1.26 0 0 1-1.247 1.5c-.606-.001-1.13-.432-1.243-1.025-1.94-10.03-8.738-18.451-18.184-22.521a1.258 1.258 0 0 1-.675-.696zM40 77.455c-20.652 0-37.454-16.802-37.454-37.456C2.545 19.347 19.347 2.545 40 2.545c20.653 0 37.456 16.802 37.456 37.454 0 20.654-16.803 37.456-37.456 37.456zm28.285-65.74C60.73 4.162 50.684 0 40 0 29.315 0 19.271 4.161 11.716 11.716S0 29.316 0 39.999c0 10.684 4.161 20.73 11.716 28.285S29.316 80 39.999 80c10.684 0 20.73-4.161 28.285-11.716C75.838 60.73 80 50.684 80 40c0-10.683-4.161-20.728-11.715-28.283z"/>
</svg>
