<svg xmlns="http://www.w3.org/2000/svg" width="21" height="30" viewBox="0 0 21 30">
    <path fill="#FFF" fill-rule="nonzero" d="M10.5 0C4.701 0 0 4.714 0 10.528c0 .445.036.879.09 1.309.897 8.223 9.728 17.701 9.728 17.701.158.177.31.286.455.364l.008.004.294.094.294-.094.008-.004c.146-.079.297-.193.455-.364 0 0 8.703-9.495 9.58-17.72.052-.425.088-.855.088-1.292C20.998 4.714 16.299 0 10.5 0zm0 17.3c-3.723 0-6.754-3.039-6.754-6.772 0-3.734 3.03-6.772 6.754-6.772 3.723 0 6.752 3.038 6.752 6.772 0 3.733-3.029 6.772-6.752 6.772z"/>
</svg>
