<svg xmlns="http://www.w3.org/2000/svg" width="30" height="30" viewBox="0 0 30 30">
    <path fill="#3D474B" fill-rule="evenodd" d="M2.837 15.478A.476.476 0 0 1 2.364 15c0-.263.212-.478.473-.478h1.699c.26 0 .472.215.472.478a.476.476 0 0 1-.472.478h-1.7zM27.636 15a.47.47 0 0 1-.461.478h-1.553a.47.47 0 0 1-.461-.478.47.47 0 0 1 .461-.478h1.553a.47.47 0 0 1 .46.478zM15.478 25.458v1.712a.473.473 0 0 1-.478.466.473.473 0 0 1-.478-.466v-1.712c0-.257.215-.466.478-.466.264 0 .478.21.478.466zm-.956-21.272V2.848c0-.267.215-.484.478-.484.264 0 .478.217.478.484v1.338A.481.481 0 0 1 15 4.67a.481.481 0 0 1-.478-.484zm.563 11.846a.949.949 0 0 1 0-1.895.949.949 0 0 1 0 1.895zm.393-2.82V8.08A.48.48 0 0 0 15 7.599a.48.48 0 0 0-.478.481v5.185c-.6.187-1.07.657-1.256 1.257h-2.318a.478.478 0 0 0 0 .956h2.265c.182.867.952 1.52 1.872 1.52a1.915 1.915 0 0 0 1.913-1.913c0-.92-.653-1.69-1.52-1.872zm-12.701-.656a.468.468 0 0 1-.064-.355c.528-2.4 1.75-4.58 3.535-6.306a12.687 12.687 0 0 1 6.463-3.353.478.478 0 0 1 .563.376.475.475 0 0 1-.38.555c-4.615.879-8.242 4.384-9.243 8.93a.481.481 0 0 1-.874.153zm24.615 4.72a.47.47 0 0 1 .064.354c-.528 2.4-1.75 4.58-3.535 6.306a12.686 12.686 0 0 1-6.463 3.353.48.48 0 0 1-.563-.376.475.475 0 0 1 .38-.555c4.615-.878 8.243-4.384 9.243-8.929a.481.481 0 0 1 .874-.154zm-14.627 9.65a.465.465 0 0 1-.545.362l-.04-.01a.473.473 0 0 1-.348-.565.465.465 0 0 1 .447-.37.44.44 0 0 1 .1.011.482.482 0 0 1 .386.572zm-2.053-.429a.476.476 0 0 1-.625.257 12.703 12.703 0 0 1-7.546-9.298.48.48 0 0 1 .471-.57c.228 0 .424.164.468.39a11.69 11.69 0 0 0 6.976 8.594.48.48 0 0 1 .256.627zm6.354-23.42a.475.475 0 0 1 .56-.365.48.48 0 0 1 .373.573.476.476 0 0 1-.563.36.478.478 0 0 1-.37-.567zm2.387.947a.475.475 0 0 1 .632-.607 12.547 12.547 0 0 1 7.374 9.135.473.473 0 0 1-.468.562.475.475 0 0 1-.466-.384 11.602 11.602 0 0 0-6.82-8.446.472.472 0 0 1-.252-.26zM15 29.046C7.255 29.046.954 22.746.954 15 .954 7.255 7.255.954 15 .954 22.745.954 29.046 7.255 29.046 15c0 7.745-6.301 14.046-14.046 14.046zM25.607 4.393A14.904 14.904 0 0 0 15 0C10.993 0 7.227 1.56 4.393 4.393A14.903 14.903 0 0 0 0 15c0 4.007 1.56 7.774 4.393 10.607A14.903 14.903 0 0 0 15 30c4.007 0 7.774-1.56 10.607-4.393A14.904 14.904 0 0 0 30 15c0-4.007-1.56-7.773-4.393-10.607z"/>
</svg>
