<?xml version="1.0" encoding="UTF-8"?>
<svg width="30px" height="30px" viewBox="0 0 30 30" version="1.1" xmlns="http://www.w3.org/2000/svg" xmlns:xlink="http://www.w3.org/1999/xlink">
    <!-- Generator: Sketch 51.2 (57519) - http://www.bohemiancoding.com/sketch -->
    <title>Shape</title>
    <desc>Created with Sketch.</desc>
    <defs></defs>
    <g id="Main_1200" stroke="none" stroke-width="1" fill="none" fill-rule="evenodd">
        <g id="Academy-Copy-17" transform="translate(-300.000000, -645.000000)" fill="#FFFFFF" fill-rule="nonzero">
            <path d="M315,675 C323.284271,675 330,668.284271 330,660 C330,651.715729 323.284271,645 315,645 C306.715729,645 300,651.715729 300,660 C300.010151,668.280063 306.719937,674.989849 315,675 Z M319.283521,670.909928 C320.05185,669.88127 320.660546,668.742553 321.089048,667.532242 C321.880787,667.693378 322.662956,667.898402 323.431934,668.146366 C322.262478,669.353386 320.847904,670.295737 319.283521,670.909928 Z M324.847492,666.346981 C323.822715,665.971638 322.77179,665.67196 321.703173,665.450358 C322.039393,664.011984 322.236817,662.544666 322.292733,661.068577 L326.668373,661.068577 C326.498506,662.949688 325.873579,664.761239 324.847492,666.346981 Z M326.668373,658.931423 L322.292733,658.931423 C322.236874,657.455329 322.039449,655.988006 321.703173,654.549642 C322.771809,654.328115 323.822739,654.028436 324.847492,653.653019 C325.87369,655.238707 326.498627,657.050286 326.668373,658.931423 Z M323.425793,651.868987 C322.656814,652.116951 321.874645,652.321976 321.082907,652.483112 C320.654405,651.2728 320.045709,650.134083 319.27738,649.105425 C320.843727,649.717857 322.260457,650.659202 323.431934,651.865916 L323.425793,651.868987 Z M316.056295,649.053224 C317.11566,649.602866 318.144319,650.929376 318.908905,652.833163 C318.006141,652.943705 317.06653,653.01433 316.056295,653.041965 L316.056295,649.053224 Z M316.056295,655.194473 C317.233286,655.16578 318.407921,655.074556 319.57523,654.921187 C319.895223,656.240215 320.084469,657.587563 320.140225,658.943705 L316.068577,658.943705 L316.056295,655.194473 Z M316.056295,661.08393 L320.140225,661.08393 C320.084489,662.440074 319.895243,663.787424 319.57523,665.106448 C318.407921,664.95308 317.233286,664.861856 316.056295,664.833163 L316.056295,661.08393 Z M316.056295,666.973388 C317.051177,667.001024 318.006141,667.071648 318.908905,667.18219 C318.144319,669.085977 317.11566,670.412487 316.056295,670.962129 L316.056295,666.973388 Z M306.63869,668.207779 C307.391761,667.953794 308.158594,667.742608 308.935517,667.57523 C309.360513,668.769569 309.96185,669.893583 310.71955,670.909928 C309.184773,670.30545 307.794365,669.384788 306.63869,668.207779 Z M313.928352,670.949846 C312.875128,670.403275 311.85261,669.089048 311.091095,667.203685 C311.987718,667.087001 312.93347,667.004094 313.928352,666.970317 L313.928352,670.949846 Z M313.928352,664.830092 C312.754821,664.869712 311.584257,664.972213 310.421699,665.137155 C310.095956,663.806461 309.903604,662.446623 309.847492,661.077789 L313.931423,661.077789 L313.928352,664.830092 Z M313.928352,658.931423 L309.847492,658.931423 C309.903604,657.562589 310.095956,656.202751 310.421699,654.872057 C311.58425,655.037057 312.754817,655.139559 313.928352,655.17912 L313.928352,658.931423 Z M313.928352,649.053224 L313.928352,653.045036 C312.93654,653.008188 311.987718,652.928352 311.091095,652.811668 C311.855681,650.910952 312.878199,649.596725 313.931423,649.050154 L313.928352,649.053224 Z M310.716479,649.093142 C309.95878,650.109488 309.357443,651.233502 308.932446,652.42784 C308.155521,652.260476 307.388686,652.049289 306.635619,651.795292 C307.791895,650.616818 309.183403,649.695075 310.71955,649.090072 L310.716479,649.093142 Z M305.21085,653.551689 C306.220117,653.935929 307.256807,654.243857 308.31218,654.472876 C307.963582,655.929427 307.7579,657.41651 307.698055,658.912999 L303.331627,658.912999 C303.505768,656.998148 304.151391,655.156222 305.21085,653.551689 Z M307.707267,661.059365 C307.767112,662.555855 307.972794,664.042937 308.321392,665.499488 C307.266016,665.728496 306.229325,666.036425 305.220061,666.420676 C304.158772,664.819711 303.510023,662.981062 303.331627,661.068577 L307.707267,661.059365 Z" id="Shape"></path>
        </g>
    </g>
</svg>