<svg xmlns="http://www.w3.org/2000/svg" xmlns:xlink="http://www.w3.org/1999/xlink" width="205" height="53" viewBox="0 0 205 53">
    <defs>
        <path id="a" d="M.16.26h5.404v5.911H.161z"/>
        <path id="c" d="M.226.21h16.997v14.757H.226z"/>
        <path id="e" d="M0 .354h49.175v52.204H0z"/>
    </defs>
    <g fill="none" fill-rule="evenodd">
        <path fill="#FFF" d="M59.385 47L57 53h1.269l.474-1.286h2.484L61.7 53H63l-2.393-6h-1.222zm.603 1.363l.849 2.297H59.14l.848-2.297z"/>
        <g transform="translate(64.018 46.829)">
            <mask id="b" fill="#fff">
                <use xlink:href="#a"/>
            </mask>
            <path fill="#FFF" d="M.16 3.216C.16 1.493 1.472.26 3.236.26c.978 0 1.796.36 2.33 1.013l-.842.784c-.38-.441-.858-.67-1.424-.67-1.06 0-1.812.75-1.812 1.829 0 1.078.753 1.829 1.812 1.829.566 0 1.044-.23 1.424-.678l.841.784c-.533.661-1.35 1.02-2.337 1.02C1.47 6.171.16 4.94.16 3.216" mask="url(#b)"/>
        </g>
        <path fill="#FFF" d="M74.07 50.673l-.897-2.188-.898 2.188h1.796zm.413 1.004h-2.628l-.502 1.225H70.01l2.524-5.715h1.294l2.532 5.715h-1.375l-.502-1.225zM79.863 51.816c1.125 0 1.86-.677 1.86-1.772 0-1.094-.735-1.771-1.86-1.771h-1.197v3.543h1.197zm-2.508-4.63h2.573c1.852 0 3.122 1.128 3.122 2.858 0 1.732-1.27 2.858-3.122 2.858h-2.573v-5.715zM88.826 51.84v1.062h-4.384v-5.715h4.278v1.061h-2.976v1.241h2.629v1.029h-2.63v1.323zM95.426 52.902l-.008-3.429-1.666 2.825h-.59l-1.66-2.752v3.356h-1.229v-5.715h1.084l2.12 3.552 2.087-3.552h1.075l.016 5.715zM101.12 50.877v2.025h-1.31v-2.041l-2.192-3.674h1.391l1.513 2.54 1.513-2.54h1.286zM67.009 32.17c0-1.37-.857-2.172-2.569-2.172h-2.297v4.322h2.297c1.712 0 2.569-.801 2.569-2.15m4.175 0c0 3.351-2.505 5.438-6.493 5.438h-2.548v3.858H58.01V26.71h6.682c3.988 0 6.493 2.087 6.493 5.46M74.235 26.71h4.134v11.446h6.975v3.31h-11.11zM96.766 35.521l-1.88-4.722-1.878 4.722h3.758zm1.211 3.078h-6.18l-1.149 2.868H86.43l6.453-14.758h4.071l6.473 14.758h-4.3l-1.15-2.868zM108.023 30.019h-4.49v-3.31h13.093v3.31h-4.468v11.447h-4.135zM123.35 29.935v3.246h6.453v3.226h-6.452v5.06h-4.135V26.709h11.464v3.226zM144.86 34.088c0-2.551-1.733-4.217-3.947-4.217-2.213 0-3.946 1.666-3.946 4.217 0 2.55 1.733 4.216 3.946 4.216 2.214 0 3.947-1.665 3.947-4.216m-12.07 0c0-4.427 3.446-7.674 8.123-7.674s8.123 3.247 8.123 7.674c0 4.427-3.446 7.674-8.123 7.674s-8.123-3.247-8.123-7.674M158.684 29.998h-2.297v4.322h2.297c1.713 0 2.569-.802 2.569-2.15 0-1.37-.856-2.172-2.569-2.172zm-.041 7.547h-2.256v3.922h-4.134V26.709h6.682c3.988 0 6.494 2.087 6.494 5.46 0 2.172-1.044 3.774-2.86 4.66l3.152 4.638h-4.426l-2.652-3.922zM181.947 41.467l-.041-7.822-3.759 6.367h-1.837l-3.738-6.156v7.61h-3.821V26.71h3.404l5.136 8.517 5.011-8.517h3.404l.042 14.758z"/>
        <g transform="translate(187.737 26.5)">
            <mask id="d" fill="#fff">
                <use xlink:href="#c"/>
            </mask>
            <path fill="#FFF" d="M10.562 9.021L8.682 4.3 6.805 9.021h3.758zm1.211 3.078h-6.18l-1.15 2.868H.227L6.678.209h4.072l6.473 14.758h-4.301l-1.149-2.868z" mask="url(#d)"/>
        </g>
        <g>
            <mask id="f" fill="#fff">
                <use xlink:href="#e"/>
            </mask>
            <path fill="#FFF" d="M20.444 50.273H4.482l8.353-8.624H28.81l-8.365 8.624zM11.88 4.333v35.098c-.1.091-9.617 9.878-9.617 9.878V14.436l9.617-10.103zm32.359.482C39.409.229 32.694.356 32.023.356H13.5c-.357 0-.912-.049-1.304.348L.316 13.184a1.149 1.149 0 0 0-.316.791v37.44c0 .012-.023.44.32.791.343.352.743.352.812.352h19.77c.295 0 .578-.116.789-.323L31.855 41.87c.533-.537.538-1.202.538-1.725v-9.362c2.37.048 8.003-.982 11.814-4.41 2.894-2.604 4.968-5.72 4.968-10.62 0-4.706-2.126-8.27-4.935-10.937z" mask="url(#f)"/>
        </g>
    </g>
</svg>
