<svg xmlns="http://www.w3.org/2000/svg" width="80" height="77" viewBox="0 0 80 77">
    <path fill="#52A6C4" fill-rule="nonzero" d="M4.425 67.66A4.43 4.43 0 0 0 0 72.085a4.43 4.43 0 0 0 4.425 4.425h58.748c6.274 0 11.378-5.104 11.378-11.378 0-3.678-1.756-6.953-4.472-9.034h.047a4.43 4.43 0 0 0 4.425-4.425 4.43 4.43 0 0 0-4.425-4.425 2.53 2.53 0 0 1-2.528-2.528 2.53 2.53 0 0 1 2.528-2.528 4.43 4.43 0 0 0 4.425-4.425 4.43 4.43 0 0 0-4.425-4.425H58.565a24.739 24.739 0 0 0 2.922-3.56h5.492c7.18 0 13.021-5.84 13.021-13.02S74.159 3.74 66.98 3.74h-.55a5.983 5.983 0 0 0-1.292-1.955A5.965 5.965 0 0 0 60.863 0H21.474A5.965 5.965 0 0 0 17.2 1.786a5.942 5.942 0 0 0-1.728 4.28c.121 9.74.906 19.8 8.301 27.276H11.378C5.104 33.342 0 38.446 0 44.72c0 3.678 1.756 6.953 4.473 9.034h-.048A4.43 4.43 0 0 0 0 58.18a4.43 4.43 0 0 0 4.425 4.425 2.53 2.53 0 0 1 2.528 2.528 2.53 2.53 0 0 1-2.528 2.528zm67.782-2.528c0 4.982-4.052 9.035-9.034 9.035H57.07c.253-.194.496-.4.733-.612l.006-.006c2.34-2.173 3.73-5.213 3.73-8.417 0-3.371-1.562-6.66-4.17-8.795-.098-.081-.197-.161-.299-.239h6.103c4.982 0 9.034 4.053 9.034 9.034zm0-27.365a2.084 2.084 0 0 1-2.08 2.081H59.422a1.172 1.172 0 0 0 0 2.344h6.54a4.842 4.842 0 0 0-.709 2.528c0 .925.26 1.79.709 2.528H24.39a2.53 2.53 0 0 1-2.528-2.528 2.53 2.53 0 0 1 2.528-2.528h30.346a1.172 1.172 0 0 0 0-2.344H24.39c-2.622 0-4.872 2.246-4.872 4.872a4.877 4.877 0 0 0 4.872 4.872h45.736c1.148 0 2.081.933 2.081 2.081a2.084 2.084 0 0 1-2.08 2.081H24.39c-4.918 0-9.034-4.117-9.034-9.034 0-4.982 4.053-9.034 9.034-9.034h45.736c1.148 0 2.081.933 2.081 2.08zm-5.532-25.99h.304a4.99 4.99 0 0 1 4.984 4.984 4.99 4.99 0 0 1-4.984 4.984H65.13c.902-3.211 1.334-6.575 1.545-9.968zm10.981 4.984c0 5.888-4.79 10.677-10.677 10.677h-4.073a26.929 26.929 0 0 0 1.481-3.349h2.592c4.041 0 7.328-3.287 7.328-7.328 0-4.04-3.287-7.328-7.328-7.328h-.19c.037-1.048.06-2.096.073-3.14.001-.07.003-.139.003-.209h.114c5.888 0 10.677 4.79 10.677 10.677zM17.816 6.036a3.615 3.615 0 0 1 1.051-2.603 3.638 3.638 0 0 1 2.607-1.09h39.39c1.833 0 3.435 1.431 3.636 3.252l.002.016c.17 1.607-.026 3.325-.109 4.937v.013c-.183 3.726-.605 7.474-1.62 10.939-1.433 4.89-3.948 8.769-7.68 11.842H27.244c-3.733-3.073-6.247-6.952-7.68-11.842-1.43-4.877-1.685-10.315-1.75-15.464zM2.344 44.72c0-4.982 4.053-9.034 9.034-9.034h6.103c-.101.077-.201.157-.3.238l-.062.053c-2.868 2.38-4.414 6.153-4.051 9.86l.01.098c.333 3.122 1.993 5.857 4.406 7.823-2.036-.006-4.071-.004-6.107-.004-4.98 0-9.033-4.053-9.033-9.034zm17.704 25.284h30.113a4.878 4.878 0 0 0 4.872-4.872 4.877 4.877 0 0 0-4.872-4.872H4.425a2.084 2.084 0 0 1-2.081-2.08c0-1.148.933-2.082 2.081-2.082h45.736c4.981 0 9.034 4.053 9.034 9.034 0 3.892-2.473 7.217-5.931 8.485a9.034 9.034 0 0 1-3.103.55H4.425a2.084 2.084 0 0 1-2.081-2.082c0-1.147.933-2.08 2.081-2.08h10.936a1.172 1.172 0 0 0 0-2.345H8.588c.45-.737.709-1.603.709-2.528s-.26-1.79-.709-2.528h41.573a2.531 2.531 0 0 1 2.528 2.528 2.531 2.531 0 0 1-2.528 2.528H20.048a1.172 1.172 0 0 0 0 2.344z"/>
</svg>
