<svg xmlns="http://www.w3.org/2000/svg" width="58" height="80" viewBox="0 0 58 80">
    <g fill="#52A6C4" fill-rule="nonzero">
        <path d="M54.447 64.739a1.17 1.17 0 0 0-.919 1.376l1.718 8.627c.06.45.128 1.49-.407 2.106-.913 1.052-2.877.509-7.89.656V66.478a1.17 1.17 0 1 0-2.34 0v11.026H22.797a1.17 1.17 0 1 0 0 2.34h30.019c1.672 0 2.946-.492 3.79-1.462.96-1.107 1.19-2.821.941-4.063l-1.724-8.661a1.17 1.17 0 0 0-1.376-.92z"/>
        <path d="M4.874 79.844h12.464a1.17 1.17 0 1 0 0-2.34h-4.216V66.478a1.17 1.17 0 1 0-2.34 0v11.026H4.875c-1.894 0-2.69-.83-2.43-2.762 3.7-17.995 3.19-18.088 4.718-19.746a5.87 5.87 0 0 1 2.229-1.482l8.96-2.643c2.255 6.27 2.103 6.005 2.324 6.391.605 1.062 1.992 1.573 3.295.82l3.48-1.38v9.776a1.17 1.17 0 1 0 2.34 0v-9.829c5.071 1.843 3.625 1.297 4.222 1.577a2.354 2.354 0 0 0 3.209-1.345l2.142-6.003c10.317 3.043 7.66 2.272 8.106 2.391.094.057 3.624.624 4.375 4.389l.618 3.102a1.17 1.17 0 1 0 2.294-.457c-.624-2.34-.405-5.374-3.433-7.745-1.73-1.352-2.263-1.259-12.185-4.186l-3.076-2.08v-1.938c5.611-3.045 8.308-8.442 8.308-13.736v-.216c3.83-.708 5.7-4.563 3.566-7.448.001-.018.062-4.337-.131-6.152C45.845.274 25.065-5.782 14.515 6.508a1.17 1.17 0 0 0 1.76 1.543C24.97-1.998 41.511 1.958 45 14.619l.02.07c.787 2.912.53 4.939.581 6.477a6.284 6.284 0 0 0-2.274-.466c-.84-.46-1.553-1.254-1.935-2.302-.196-.577-.27-.871-.33-1.84a3.19 3.19 0 0 0-1.146-2.366c-2.442-2.037-4.534 1.085-17.772-.467l-1.763-.245c-1.904-.296-3.665 1.133-3.715 3.089-.027.565-.059.91-.233 1.538-.384 1.285-1.144 1.934-1.09 1.878a4.15 4.15 0 0 1-.94.715 6.282 6.282 0 0 0-2.276.466c.005-3.416.019-5.646 1.403-8.802a1.17 1.17 0 0 0-2.142-.94 18.962 18.962 0 0 0-1.582 6.83c0 .016-.037 4.385-.014 4.7-2.143 2.896-.254 6.742 3.566 7.448.073 10.218 8.12 13.796 8.24 13.915l.03.016v1.978l-3.028 2.047c-9.09 2.682-9.882 2.91-9.99 2.95-2.546.95-4.477 2.977-5.058 5.893C-.011 75.093.14 74.323.13 74.384c-.447 3.162 1.223 5.46 4.743 5.46zM22.537 48.52l4.258 5.926c-4.018 1.608-3.85 1.491-4.078 1.66-.033-.003.08.23-2.227-6.201l2.047-1.385zm6.213-2.397v-.01h.022v.01c2.171-.037 3.43-.279 4.95-.778v1.168l-5.065 6.514-4.69-6.527v-1.168c2.556.845 4.64.778 4.783.79zm6.265 9.979c-.027.023-.07-.069-.319-.16l-4.165-1.512 4.613-5.933 2.082 1.408-2.211 6.197zM44.37 28v-4.797c2.824.84 2.822 3.958 0 4.798zm-31.012-4.797v4.798c-2.824-.84-2.824-3.959 0-4.798zm3.258 12.257c-1.19-3.001-.919-4.598-.919-12.807 1.86-1.096 3.234-3.178 3.308-6.037.013-.527.503-.905 1.014-.825l.36.055c1.112.053 6.871 1.417 17.33-.055a.893.893 0 0 1 .707.196c.286.239.298.502.312.729.074 2.072.838 3.94 2.37 5.264l-.009-.007c.216.195.597.478.94.68l.001 7.964c0 9.438-9.92 16.317-19.211 11.7l.004.002a13.22 13.22 0 0 1-6.207-6.858z"/>
    </g>
</svg>
