<svg xmlns="http://www.w3.org/2000/svg" width="120" height="120" viewBox="0 0 120 120">
    <g fill="none" fill-rule="nonzero">
        <circle cx="59.895" cy="59.895" r="59.895" fill="#3DB39E"/>
        <path fill="#37A18E" d="M110.059 27.234l-52.97 54.842.093 5.896h2.433l57.37-46.232c-1.686-5.147-4.025-10.108-6.926-14.506z"/>
        <path fill="#F2F1EF" d="M118.669 24.614l-10.576-10.482c-1.404-1.404-3.743-1.404-5.24 0l-45.203 46.7-19.56-19.28c-1.404-1.403-3.744-1.403-5.24 0l-9.36 9.266c-1.404 1.404-1.404 3.744 0 5.147L54.75 86.942c.842.843 1.965 1.124 3.088 1.03 1.123.094 2.246-.187 3.088-1.03l57.744-57.088c1.403-1.497 1.403-3.837 0-5.24z"/>
        <path fill="#E6E5E3" d="M60.925 86.942l57.744-57.088c1.403-1.404 1.403-3.743 0-5.147l-1.685-1.591-59.24 58.211-32.756-31.913-1.404 1.404c-1.404 1.404-1.404 3.744 0 5.147l31.258 30.978c.843.842 1.966 1.123 3.089 1.03 1.029.093 2.152-.188 2.994-1.03z"/>
    </g>
</svg>
