<svg xmlns="http://www.w3.org/2000/svg" width="49" height="75" viewBox="0 0 49 75">
    <g fill="#FFF" fill-rule="evenodd">
        <path stroke="#FFF" stroke-width="1.394" d="M47.883 2s-.717 2.647-.717 4.62c0 1.975.717 4.622.717 4.622s-3.701-1.52-5.069-4.621C44.182 3.519 47.883 2 47.883 2zM6.068 2s-.716 2.647-.716 4.62c0 1.975.716 4.622.716 4.622S2.368 9.722 1 6.62C2.367 3.519 6.068 2 6.068 2zm20.907 0s-.716 2.647-.716 4.62c0 1.975.716 4.622.716 4.622s-3.7-1.52-5.068-4.621C23.274 3.519 26.975 2 26.975 2zm20.908 41.747s-.717 2.646-.717 4.62c0 1.975.717 4.622.717 4.622s-3.701-1.52-5.069-4.621c1.368-3.102 5.069-4.621 5.069-4.621zm-41.815 0s-.716 2.646-.716 4.62c0 1.975.716 4.622.716 4.622s-3.7-1.52-5.068-4.621c1.367-3.102 5.068-4.621 5.068-4.621zm41.815-20.874s-.717 2.647-.717 4.621c0 1.975.717 4.621.717 4.621s-3.701-1.519-5.069-4.62c1.368-3.103 5.069-4.622 5.069-4.622zm-41.815 0s-.716 2.647-.716 4.621c0 1.975.716 4.621.716 4.621s-3.7-1.519-5.068-4.62c1.367-3.103 5.068-4.622 5.068-4.622zM47.883 64.62s-.717 2.647-.717 4.621c0 1.974.717 4.621.717 4.621s-3.701-1.519-5.069-4.62c1.368-3.103 5.069-4.622 5.069-4.622zm-20.908 0s-.716 2.647-.716 4.621c0 1.974.716 4.621.716 4.621s-3.7-1.519-5.068-4.62c1.367-3.103 5.068-4.622 5.068-4.622zm-20.907 0s-.716 2.647-.716 4.621c0 1.974.716 4.621.716 4.621s-3.7-1.519-5.068-4.62c1.367-3.103 5.068-4.622 5.068-4.622zM37.43 12.516s-.716 2.647-.716 4.621c0 1.975.716 4.621.716 4.621s-3.701-1.519-5.068-4.62c1.367-3.103 5.068-4.622 5.068-4.622zm-20.907 0s-.716 2.647-.716 4.621c0 1.975.716 4.621.716 4.621s-3.701-1.519-5.068-4.62c1.367-3.103 5.068-4.622 5.068-4.622zm20.907 41.747s-.716 2.647-.716 4.621c0 1.974.716 4.621.716 4.621s-3.701-1.519-5.068-4.62c1.367-3.103 5.068-4.622 5.068-4.622zm-20.907 0s-.716 2.647-.716 4.621c0 1.974.716 4.621.716 4.621s-3.701-1.519-5.068-4.62c1.367-3.103 5.068-4.622 5.068-4.622z"/>
        <path d="M33.796 37.464a.927.927 0 0 1-.92-.933c0-.515.412-.933.92-.933s.92.418.92.933a.927.927 0 0 1-.92.933M21.285 22.345s1.636 6.145 2.201 12.06c-3.193-3.579-7.417-5.34-7.417-5.34s1.405 5.274 1.405 9.208-1.405 9.209-1.405 9.209 4.174-1.742 7.36-5.278c-.61 5.736-2.144 11.5-2.144 11.5s12.357-5.154 16.923-15.68C33.642 27.5 21.285 22.345 21.285 22.345"/>
    </g>
</svg>
