<svg xmlns="http://www.w3.org/2000/svg" width="42" height="42" viewBox="0 0 42 42">
    <g fill="none" fill-rule="evenodd" transform="translate(1 1)">
        <path fill="#FFF" d="M15.16 28.7h-3.787V15.48h3.787V28.7zm-1.856-14.728c-1.27 0-2.304-.958-2.304-2.136 0-1.178 1.034-2.136 2.304-2.136 1.27 0 2.303.958 2.303 2.136 0 1.178-1.033 2.136-2.303 2.136zM29.925 28.7h-3.88v-7.84c0-.017.057-1.261-.648-2.005-.352-.37-.836-.558-1.439-.558-1.517 0-2.284 1.093-2.609 1.755V28.7h-3.787V15.48h3.787v1.116c1.24-1.005 2.632-1.536 4.035-1.536 3.592 0 4.541 2.806 4.541 4.29v9.35z"/>
        <circle cx="20" cy="20" r="20" stroke="#FFF"/>
    </g>
</svg>
