<svg xmlns="http://www.w3.org/2000/svg" width="42" height="42" viewBox="0 0 42 42">
    <g fill="none" fill-rule="evenodd" transform="translate(1 1)">
        <circle cx="20" cy="20" r="20" stroke="#FFF"/>
        <path fill="#FFF" fill-rule="nonzero" d="M12.372 15.239a.775.775 0 0 0-.252-.653l-1.868-2.25V12h5.798l4.482 9.83 3.94-9.83H30v.336l-1.597 1.53a.467.467 0 0 0-.177.449v11.248c-.029.17.04.343.177.448l1.56 1.53v.337H22.12v-.336l1.615-1.568c.159-.159.159-.206.159-.448v-9.092L19.402 27.84h-.606l-5.23-11.407v7.645c-.043.321.064.645.29.877l2.101 2.548v.337H10v-.337l2.1-2.548c.225-.233.326-.558.272-.877v-8.84z"/>
    </g>
</svg>
