<svg xmlns="http://www.w3.org/2000/svg" width="42" height="42" viewBox="0 0 42 42">
    <g fill="none" fill-rule="evenodd" transform="translate(1 1)">
        <path fill="#FFF" fill-rule="nonzero" d="M29 14.736a7.353 7.353 0 0 1-2.12.584 3.72 3.72 0 0 0 1.623-2.05 7.428 7.428 0 0 1-2.347.9A3.676 3.676 0 0 0 23.461 13a3.7 3.7 0 0 0-3.692 3.705c0 .29.032.574.095.845a10.47 10.47 0 0 1-7.61-3.873 3.688 3.688 0 0 0-.5 1.863c0 1.286.653 2.42 1.643 3.084a3.683 3.683 0 0 1-1.673-.465v.047a3.706 3.706 0 0 0 2.962 3.634c-.31.083-.636.13-.973.13-.238 0-.47-.024-.695-.07a3.696 3.696 0 0 0 3.448 2.575 7.391 7.391 0 0 1-4.585 1.584c-.298 0-.592-.019-.881-.051a10.41 10.41 0 0 0 5.66 1.667c6.793 0 10.505-5.647 10.505-10.544l-.012-.48A7.389 7.389 0 0 0 29 14.736z"/>
        <circle cx="20" cy="20" r="20" stroke="#FFF"/>
    </g>
</svg>
