<svg xmlns="http://www.w3.org/2000/svg" width="20" height="16" viewBox="0 0 20 16">
    <g fill="#FFF" fill-rule="nonzero">
        <path d="M1.918 4.872c.253.179 1.015.708 2.286 1.59 1.272.88 2.246 1.559 2.922 2.035.075.052.233.165.474.34.242.175.443.316.603.424.16.107.353.228.58.362.226.134.44.234.64.3.202.068.388.101.558.101h.022c.172 0 .358-.033.559-.1.2-.067.414-.167.64-.3.228-.135.42-.256.58-.363.16-.108.361-.25.603-.424.242-.175.4-.288.474-.34l5.22-3.625a5.298 5.298 0 0 0 1.36-1.372c.364-.535.546-1.096.546-1.684 0-.49-.176-.91-.53-1.26a1.724 1.724 0 0 0-1.254-.524H1.784C1.212.032.771.225.463.612.154.999 0 1.482 0 2.062c0 .468.205.976.613 1.522.41.547.844.976 1.305 1.288z"/>
        <path d="M18.87 6.065C16.432 7.715 14.58 9 13.316 9.913c-.424.312-.767.556-1.031.73a6.366 6.366 0 0 1-1.054.536c-.439.182-.848.273-1.227.273h-.022c-.38 0-.789-.09-1.227-.273a6.37 6.37 0 0 1-1.054-.535 26.412 26.412 0 0 1-1.032-.73c-1.003-.737-2.851-2.02-5.542-3.849A5.907 5.907 0 0 1 0 5.095v8.855c0 .491.175.911.524 1.26.35.35.77.525 1.26.525h16.417c.49 0 .91-.175 1.26-.525.35-.35.524-.769.524-1.26V5.095a6.15 6.15 0 0 1-1.115.97z"/>
    </g>
</svg>
