<svg xmlns="http://www.w3.org/2000/svg" width="37" height="114" viewBox="0 0 37 114">
    <defs>
        <linearGradient id="a" x1="0%" y1="100%" y2="18.719%">
            <stop offset="0%" stop-color="#46DCC0"/>
            <stop offset="100%" stop-color="#52A6C4"/>
        </linearGradient>
    </defs>
    <path fill="url(#a)" fill-rule="evenodd" d="M233.517 1593.406l-.187.023a34.537 34.537 0 0 0 2.603-2.595c.477.435.844.838.851 1.085.05 1.708-1.934 1.319-3.267 1.487zm-5.444.658a57.677 57.677 0 0 1 6.193-4.61c.324.26.727.579 1.116.903a34.184 34.184 0 0 1-3.342 3.228l-2.555.309-1.412.17zm-4.62.559a59.364 59.364 0 0 0 8.5-7.324l1.734 1.658a58.388 58.388 0 0 0-6.912 5.264l-3.323.402zm-.42-3.306l7.363-5.507 1.028.984a58.463 58.463 0 0 1-8.99 7.665l.6-3.142zm.561-2.935l5.261-4.045 1.009.964-6.628 4.957c.12-.625.24-1.25.358-1.876zm.652-3.406c1.077-.651 2.155-1.304 3.234-1.955l.845.809-4.526 3.48.447-2.334zm.815-4.267l1.87 1.789-2.5 1.512.63-3.301zm-32.724 28.157c2.813 4.517 2 12.863-4.277 14.057-3.595.684-6.87-2.198-8.034-5.374-1.428-3.902-.376-8.217 1.36-11.848a28.055 28.055 0 0 1 1.8-3.196c3.683.969 7.148 3.144 9.15 6.361zm43.83-20.59c.157-.094.311-.191.47-.283.406-.236.04-.868-.369-.632-.223.13-.44.267-.661.398l-3.577-3.42c-.023-.19-.17-.355-.352-.336l-1.326-1.268a.36.36 0 0 0-.148-.142l-5.064-4.842c-.555-.53-1.67-.36-1.83.484l-1.793 9.381c-11.305-3.977-24.19-1.316-33.438 6.226a33.663 33.663 0 0 0-5.877 6.178c-8.21-1.24-16.892 3.472-22.443 10.137-11 13.203-14.439 31.901-11.163 48.501.272 1.384 2.385.798 2.112-.583-2.417-12.25-.976-25.125 4.405-36.425 4.477-9.401 12.992-20.295 24.573-19.698.382.02.766.057 1.15.104-1.53 2.494-2.681 5.201-3.274 8.032-1.183 5.647.59 12.419 6.526 14.585 4.919 1.795 9.584-1.397 11.33-6.009 1.938-5.121-.006-10.618-3.967-14.176-2.156-1.936-4.478-3.208-6.87-3.929a31.152 31.152 0 0 1 5.708-5.67c8.727-6.67 20.444-8.809 30.813-5.101l-.79 4.128c-.44-.01-.872.22-1.01.778l-.282 1.142c-.153.619.32 1.478 1.057 1.388l4.064-.49c-.168.325.278.722.58.42.19-.19.387-.373.579-.56l8.217-.993c1.708-.207 4.834-.054 5.746-1.954 1.042-2.172-1.578-4.041-3.096-5.37z" transform="scale(1 -1) rotate(-53 -1572.718 944.47)"/>
</svg>
