<svg xmlns="http://www.w3.org/2000/svg" width="23" height="111" viewBox="0 0 23 111">
    <defs>
        <linearGradient id="a" x1="100%" x2="0%" y1="50%" y2="14.871%">
            <stop offset="0%" stop-color="#46DCC0"/>
            <stop offset="100%" stop-color="#52A6C4"/>
        </linearGradient>
    </defs>
    <path fill="url(#a)" fill-rule="evenodd" d="M141.76 1426.552l-1.071-2.404 4.178-6.126 3.829.548-6.936 7.982m-4.275-9.588c1.146.164 2.291.329 3.437.492l-1.906 2.941-1.531-3.433m6.405.918l-3.625 5.316-.818-1.835 2.442-3.767 2.001.286m97.764 5.54c-27.845 17.79-65.078 17.083-92.305-1.547l2.89-3.326c.58-.666.487-2.083-.586-2.237l-16-2.293c-1.19-.17-2.003.843-1.503 1.966l3.149 7.061c-.188.293.021.569.283.636l2.263 5.074-.678.781c-1.123 1.292.75 3.193 1.88 1.893l.236-.272c.902.313 2.137-.731 1.668-1.92l4.637-5.336c27.996 19.425 66.685 20.182 95.408 1.832 1.44-.92.108-3.238-1.342-2.311" transform="scale(1 -1) rotate(87 881.659 592.767)"/>
</svg>
